<svg xmlns="http://www.w3.org/2000/svg" width="242.36534118652344" height="230.0291290283203" viewBox="-24.62159538269043 -15.205591201782227 242.36534118652344 230.0291290283203"><title>Neo4j Graph Visualization</title><desc>Created using Neo4j (http://www.neo4j.com/)</desc><g class="layer relationships"><g class="relationship" transform="translate(184.33792466367993 81.74367101941263) rotate(220.17832345964234)"><path class="outline" fill="#A5ABB6" stroke="none" d="M 25 0.5 L 39.492105504838435 0.5 L 39.492105504838435 -0.5 L 25 -0.5 Z M 58.828043004838435 0.5 L 73.32014850967687 0.5 L 73.32014850967687 3.5 L 80.32014850967687 0 L 73.32014850967687 -3.5 L 73.32014850967687 -0.5 L 58.828043004838435 -0.5 Z"/><text text-anchor="middle" pointer-events="none" font-size="8px" fill="#000000" x="49.160074254838435" y="3" transform="rotate(180 49.160074254838435 0)" font-family="sans-serif">trek</text></g><g class="relationship" transform="translate(165.72415980082155 185.82352497119498) rotate(280.13964947567456)"><path class="outline" fill="#A5ABB6" stroke="none" d="M 21.40063509461097,12.933012701892217 L 21.90063509461097,12.06698729810778 A 58.156217057193906 58.156217057193906 0 0 0 22.681852298508495,12.510015929497655 L 22.195285380016003,13.383659239910273 A 59.156217057193906 59.156217057193906 0 0 1 21.40063509461097,12.933012701892217 Z M 76.47294085567361,15.08297081900993 L 76.04197690123723,14.180601676155106 A 58.156217057193906 58.156217057193906 0 0 0 76.84937744517414,13.787309101158991 L 75.51483566454954,11.100489748138154 L 83.34104623232686,11.121181505205048 L 78.62876648600695,17.36973490518677 L 77.29422470538235,14.682915552165936 A 59.156217057193906 59.156217057193906 0 0 1 76.47294085567361,15.08297081900993"/><text text-anchor="middle" pointer-events="none" font-size="8px" fill="#000000" x="49.14324844111997" y="23.329717415673784" font-family="sans-serif">PublicTrans…</text></g><g class="relationship" transform="translate(165.72415980082155 185.82352497119498) rotate(280.13964947567456)"><path class="outline" fill="#A5ABB6" stroke="none" d="M 25 0.5 L 39.69763500375024 0.5 L 39.69763500375024 -0.5 L 25 -0.5 Z M 59.03357250375024 0.5 L 73.73120750750049 0.5 L 73.73120750750049 3.5 L 80.73120750750049 0 L 73.73120750750049 -3.5 L 73.73120750750049 -0.5 L 59.03357250375024 -0.5 Z"/><text text-anchor="middle" pointer-events="none" font-size="8px" fill="#000000" x="49.36560375375024" y="3" font-family="sans-serif">trek</text></g><g class="relationship" transform="translate(165.72415980082155 185.82352497119498) rotate(280.13964947567456)"><path class="outline" fill="#A5ABB6" stroke="none" d="M 21.40063509461097,-12.933012701892217 L 21.90063509461097,-12.06698729810778 A 58.156217057193906 58.156217057193906 0 0 1 38.348021787260485,-18.47026666843005 L 38.130835689624085,-19.446396884637636 A 59.156217057193906 59.156217057193906 0 0 0 21.40063509461097,-12.933012701892217 Z M 60.18934954308462,-20.136999448076033 L 60.03364983174284,-19.14919501404666 A 58.156217057193906 58.156217057193906 0 0 1 76.84937744517414,-13.787309101158991 L 75.51483566454954,-11.100489748138154 L 83.34104623232686,-11.121181505205048 L 78.62876648600695,-17.36973490518677 L 77.29422470538235,-14.682915552165936 A 59.156217057193906 59.156217057193906 0 0 0 60.18934954308462,-20.136999448076033"/><text text-anchor="middle" pointer-events="none" font-size="8px" fill="#000000" x="49.14324844111998" y="-17.329717415673784" font-family="sans-serif">road</text></g><g class="relationship" transform="translate(103.86910069859405 13.794410156792408) rotate(520.2162930529382)"><path class="outline" fill="#A5ABB6" stroke="none" d="M 25 0.5 L 39.697664432296165 0.5 L 39.697664432296165 -0.5 L 25 -0.5 Z M 59.033601932296165 0.5 L 73.73126636459233 0.5 L 73.73126636459233 3.5 L 80.73126636459233 0 L 73.73126636459233 -3.5 L 73.73126636459233 -0.5 L 59.033601932296165 -0.5 Z"/><text text-anchor="middle" pointer-events="none" font-size="8px" fill="#000000" x="49.365633182296165" y="3" transform="rotate(180 49.365633182296165 0)" font-family="sans-serif">trek</text></g></g><g class="layer nodes"><g class="node" transform="translate(165.72415980082155,185.82352497119498)"><circle class="outline" cx="0" cy="0" r="25" fill="#68BDF6" stroke="#5CA8DB" stroke-width="2px"/><text text-anchor="middle" pointer-events="none" font-family="sans-serif" dy="1.5625" font-size="25" fill="#FFFFFF"/><text text-anchor="middle" pointer-events="none" y="5" font-size="10px" fill="#FFFFFF" font-family="sans-serif"> Darjeeling</text></g><g class="node" transform="translate(184.33792466367993,81.74367101941263)"><circle class="outline" cx="0" cy="0" r="25" fill="#68BDF6" stroke="#5CA8DB" stroke-width="2px"/><text text-anchor="middle" pointer-events="none" font-family="sans-serif" dy="1.5625" font-size="25" fill="#FFFFFF"/><text text-anchor="middle" pointer-events="none" y="5" font-size="10px" fill="#FFFFFF" font-family="sans-serif"> Rimbik</text></g><g class="node" transform="translate(103.86910069859405,13.794410156792408)"><circle class="outline" cx="0" cy="0" r="25" fill="#6DCE9E" stroke="#60B58B" stroke-width="2px"/><text text-anchor="middle" pointer-events="none" font-family="sans-serif" dy="1.5625" font-size="25" fill="#FFFFFF"/><text text-anchor="middle" pointer-events="none" y="5" font-size="10px" fill="#FFFFFF" font-family="sans-serif"> BhikeBh…</text></g><g class="node" transform="translate(4.378404848413387,49.58130896497662)"><circle class="outline" cx="0" cy="0" r="25" fill="#FF756E" stroke="#E06760" stroke-width="2px"/><text text-anchor="middle" pointer-events="none" font-family="sans-serif" dy="1.5625" font-size="25" fill="#FFFFFF"/><text text-anchor="middle" pointer-events="none" y="5" font-size="10px" fill="#FFFFFF" font-family="sans-serif"> Sandak…</text></g></g></svg>